# xmcd
#
# Track frame offsets: 
#        150
#        14053
#        26679
#        37063
#        48279
#        58710
#        69995
#        82534
#        92902
#        105366
#        113225
#        124250
#        134992
#        146421
#        159563
#        171706
#        181988
#        191427
#        202026
#        211724
#
# Disc length: 2961 seconds
#
# Revision: 0
# Processed by: cddbd v1.5.2PL0 Copyright (c) Steve Scherf et al.
# Submitted via: ExactAudioCopy v1.3
#
DISCID=220b8f14
DTITLE=Various Artist - Feelin' Soulful - 40 Instrumental Soul Groove
DTITLE=s [CD2]
DYEAR=2016
DGENRE=Soul
TTITLE0=Ray Charles - One Mint Julep
TTITLE1=Alvin Cash - Twine Time
TTITLE2=James Brown - Suds
TTITLE3=Bill Doggett - Hold It
TTITLE4=Clifford Scott - Walk That Twist
TTITLE5=The Parkays - Get It
TTITLE6=Henry Moore - Switch-A-Roo
TTITLE7=James Booker - Cool Turkey
TTITLE8=Harvey Fuqua - Any Way You Wanta
TTITLE9=James Brown - The Scratch
TTITLE10=The Mar-Keys - Sock O' Woe
TTITLE11=Freddy King - Texas Oil
TTITLE12=The Megatons - Shimmy Shimmy Walk (Part 1)
TTITLE13=King Curtis - Night Train
TTITLE14=Hank Marr - Tonk Game
TTITLE15=Phil Upchurch Combo - You Can't Sit Down (Part 2)
TTITLE16=James Brown - Cross Firing
TTITLE17=Booker T. and The M.G.'s - Jellybread
TTITLE18=The Wobblers - The Wobble
TTITLE19=Willie Mitchell - Willie's House Party
EXTD=
EXTT0=
EXTT1=
EXTT2=
EXTT3=
EXTT4=
EXTT5=
EXTT6=
EXTT7=
EXTT8=
EXTT9=
EXTT10=
EXTT11=
EXTT12=
EXTT13=
EXTT14=
EXTT15=
EXTT16=
EXTT17=
EXTT18=
EXTT19=
PLAYORDER=
